<?xml version="1.0" encoding="UTF-8" standalone="no"?>
<svg
   xmlns:dc="http://purl.org/dc/elements/1.1/"
   xmlns:cc="http://creativecommons.org/ns#"
   xmlns:rdf="http://www.w3.org/1999/02/22-rdf-syntax-ns#"
   xmlns:svg="http://www.w3.org/2000/svg"
   xmlns="http://www.w3.org/2000/svg"
   xmlns:sodipodi="http://sodipodi.sourceforge.net/DTD/sodipodi-0.dtd"
   xmlns:inkscape="http://www.inkscape.org/namespaces/inkscape"
   width="122.46429mm"
   height="94.343987mm"
   viewBox="0 0 122.46429 94.343987"
   version="1.1"
   id="svg8"
   inkscape:version="1.0 (4035a4fb49, 2020-05-01)"
   sodipodi:docname="SY-Celine.svg">
  <defs
     id="defs2">
    <clipPath
       clipPathUnits="userSpaceOnUse"
       id="clipPath27">
      <g
         id="use29"
         inkscape:label="Clip">
        <path
           sodipodi:type="star"
           style="fill:#ffff00;fill-rule:evenodd;stroke-width:0.264583"
           id="path31"
           sodipodi:sides="5"
           sodipodi:cx="107.97689"
           sodipodi:cy="133.10022"
           sodipodi:r1="31.893665"
           sodipodi:r2="15.946833"
           sodipodi:arg1="0.69044646"
           sodipodi:arg2="1.318765"
           inkscape:flatsided="false"
           inkscape:rounded="0"
           inkscape:randomized="0"
           d="m 132.56569,153.4127 -20.61211,-4.86944 -15.696654,14.2192 -1.738373,-21.10802 -18.373795,-10.53443 19.537735,-8.17603 4.341027,-20.72984 13.81335,16.05496 21.0567,-2.27731 -11.00061,18.09854 z"
           inkscape:transform-center-x="2.4577292"
           inkscape:transform-center-y="-0.6119208" />
      </g>
    </clipPath>
  </defs>
  <sodipodi:namedview
     id="base"
     pagecolor="#ffffff"
     bordercolor="#666666"
     borderopacity="1.0"
     inkscape:pageopacity="0.0"
     inkscape:pageshadow="2"
     inkscape:zoom="1.4"
     inkscape:cx="270.30378"
     inkscape:cy="298.79344"
     inkscape:document-units="mm"
     inkscape:current-layer="layer1"
     inkscape:document-rotation="0"
     showgrid="false"
     inkscape:snap-global="true"
     inkscape:window-width="1920"
     inkscape:window-height="1017"
     inkscape:window-x="-8"
     inkscape:window-y="-8"
     inkscape:window-maximized="1" />
  <metadata
     id="metadata5">
    <rdf:RDF>
      <cc:Work
         rdf:about="">
        <dc:format>image/svg+xml</dc:format>
        <dc:type
           rdf:resource="http://purl.org/dc/dcmitype/StillImage" />
        <dc:title></dc:title>
      </cc:Work>
    </rdf:RDF>
  </metadata>
  <g
     transform="translate(-26.458334,-2.4179103)"
     inkscape:label="Lag 1"
     inkscape:groupmode="layer"
     id="layer1">
    <text
       xml:space="preserve"
       style="font-style:normal;font-weight:normal;font-size:10.5833px;line-height:1.25;font-family:sans-serif;fill:#000000;fill-opacity:1;stroke:none;stroke-width:0.264583"
       x="52.160713"
       y="124.73214"
       id="text12"><tspan
         sodipodi:role="line"
         id="tspan10"
         x="52.160713"
         y="124.73214"
         style="stroke-width:0.264583" /></text>
    <path
       style="fill:#000000;fill-opacity:1;fill-rule:nonzero;stroke:none;stroke-width:0.264583"
       id="path67"
       d="m 42.691695,60.359514 c -1.362234,0.858592 -2.611792,1.878367 -3.853143,2.89972 -1.267637,1.035288 -2.539778,2.06584 -3.782118,3.131523 -0.630428,0.56937 -1.308968,1.082527 -1.986426,1.593461 -0.429844,0.279715 -0.835787,0.591863 -1.254368,0.88749 -0.344051,0.304202 -0.715476,0.582493 -0.984665,0.958045 -0.264084,0.449067 -0.291002,0.984917 -0.323189,1.493211 -0.05795,0.507513 0.133133,0.930462 0.447643,1.313195 0.283655,0.271524 0.580631,0.528265 0.883143,0.778373 0.274822,0.218837 0.585337,0.365977 0.901837,0.51168 0.559208,0.27251 1.181701,0.327046 1.785983,0.431803 1.35065,0.248221 2.722596,0.340868 4.092125,0.409284 1.754917,0.07876 3.511182,0.107093 5.267621,0.116038 1.606611,0.0024 3.213222,0.0043 4.819835,0.0043 1.46046,-0.0026 2.921278,0.01609 4.381344,-0.02167 1.700363,-0.127392 3.400282,-0.242666 5.104495,-0.30353 2.236404,-0.122243 4.47512,-0.185928 6.714368,-0.222428 2.213211,-0.03744 4.426741,-0.03766 6.640185,-0.0335 1.425979,0.0013 2.849223,-0.09453 4.265255,-0.257151 1.256749,-0.177014 2.52431,-0.235961 3.791516,-0.271904 1.445427,-0.03081 2.891237,-0.02405 4.336881,-0.02574 1.460806,0.0024 2.921605,5.29e-4 4.38241,-0.0027 1.80558,0.0045 3.611358,-0.02582 5.416566,0.01746 1.617154,0.07407 3.235031,0.121539 4.85359,0.149281 1.619287,0.02474 3.238797,0.01794 4.858207,0.02656 0.91984,0.0029 1.83962,0.01654 2.75948,0.01545 0.96953,-0.0067 1.93908,-0.0074 2.90863,-0.0072 0.92992,0.0058 1.85984,-1e-4 2.78977,0.0026 0.75496,0.0019 1.50991,0.0042 2.26487,0.0042 1.06495,-0.0213 2.13071,-0.08408 3.19335,-0.159912 1.08615,-0.07781 2.17029,-0.168513 3.2538,-0.276476 0.84092,-0.08373 1.68563,-0.111469 2.5301,-0.126309 0.78113,0.0078 1.55883,-0.01529 2.33707,-0.08114 0.60012,-0.05442 1.17026,-0.233127 1.72217,-0.466177 0.44294,-0.200187 0.87434,-0.424704 1.30556,-0.648703 0.85832,-0.494588 1.71664,-0.989174 2.57496,-1.483759 0.0536,-0.03057 0.21425,-0.122672 0.16085,-0.09172 -0.75035,0.435018 -1.50322,0.865714 -2.25173,1.303896 -0.0522,0.03053 0.10986,-0.05075 0.16232,-0.08074 2.34135,-1.338413 1.75042,-0.978247 2.76199,-1.598906 0.37247,-0.261737 0.71016,-0.57186 1.08146,-0.834427 0.36342,-0.27109 0.77393,-0.475115 1.1207,-0.767689 0.63591,-0.431154 1.20232,-0.94793 1.78727,-1.443355 0.66579,-0.555974 1.2988,-1.15184 2.00567,-1.656363 0.44308,-0.338087 0.85901,-0.716039 1.31195,-1.040715 0.35786,-0.271526 0.65126,-0.610452 0.99552,-0.899599 0.31456,-0.266475 0.58335,-0.582464 0.88781,-0.858837 0.22962,-0.274675 0.47469,-0.531138 0.71328,-0.799195 0.29295,-0.316056 0.52954,-0.682999 0.72949,-1.063763 0.21714,-0.36834 0.40995,-0.746474 0.52424,-1.159518 0.0756,-0.381799 0.12959,-0.778796 0.0736,-1.166005 -0.0574,-0.35124 -0.23303,-0.662589 -0.4213,-0.958946 -0.2487,-0.36441 -0.64365,-0.477215 -1.04243,-0.602064 -0.83853,-0.208124 -1.6796,-0.407615 -2.52958,-0.563843 -0.66301,-0.112726 -1.32099,-0.24088 -1.99087,-0.305906 -0.78909,-0.06201 -1.58133,-0.05672 -2.37224,-0.05801 -0.95198,-2.54e-4 -1.90396,0.0013 -2.85594,5.29e-4 -1.00478,-0.0019 -2.00955,0.0037 -3.01433,0.0071 -1.24089,0.0081 -2.47334,0.149035 -3.70214,0.307782 -1.27136,0.190206 -2.54568,0.362043 -3.81367,0.573863 -1.24405,0.235238 -2.50388,0.347464 -3.76697,0.406299 -1.59831,0.07778 -3.19272,0.211016 -4.78566,0.360315 -1.73851,0.186822 -3.46925,0.436536 -5.20951,0.607163 -1.52431,0.141314 -3.05499,0.183195 -4.58491,0.202991 -1.58424,0.06704 -3.169452,0.113713 -4.753454,0.185375 -1.807599,0.09755 -3.611237,0.24366 -5.420254,0.317955 -2.368619,0.138422 -4.739918,0.204346 -7.112016,0.239782 -1.849326,0.02394 -3.698827,0.02209 -5.548265,0.02096 -1.647499,0.0076 -3.295017,7.93e-4 -4.942517,-0.0036 -1.327732,-7.94e-4 -2.655456,-0.0024 -3.98318,-0.0075 -1.28107,-0.0043 -2.562122,0.0065 -3.843179,0.0076 -1.261525,-0.0047 -2.523045,-0.0064 -3.784576,-0.0065 -1.625285,0.0047 -3.250488,0.01392 -4.8758,0.01323 -1.493295,-5.29e-4 -2.986558,-0.0076 -4.479832,-0.01376 -0.942599,-0.0052 -1.885201,-0.0028 -2.827803,-0.0077 -0.599318,-0.0047 -1.198653,-0.0035 -1.797984,-0.0053 -0.50396,-0.0039 -1.007907,7.93e-4 -1.511866,0.0011 -0.547013,-5.29e-4 -1.094029,-5.29e-4 -1.641044,-0.0011 -0.4822,-0.0013 -0.964398,-5.3e-4 -1.446601,-0.0013 -0.282422,-0.0086 -0.562288,-7.94e-4 -0.842399,0.0351 0,0 -2.245006,1.6852 -2.245006,1.6852 v 0 c 0.273114,-0.0511 0.539475,-0.09764 0.819431,-0.07252 0.483515,-7.94e-4 0.967028,-2.15e-4 1.450543,-0.0013 0.547966,-5.29e-4 1.095934,-5.29e-4 1.643899,-0.0011 0.502983,2.65e-4 1.005956,0.005 1.50894,0.0011 0.604247,-0.0019 1.208492,-7.94e-4 1.812724,-0.0053 0.949671,-0.0049 1.899343,-0.0026 2.849012,-0.0077 1.5059,-0.0061 3.011789,-0.01331 4.51771,-0.01376 1.61318,-7.94e-4 3.226247,0.0084 4.839401,0.01323 1.267457,-7.7e-5 2.534907,-0.0019 3.802359,-0.0065 1.274037,0.0011 2.548064,0.01188 3.822115,0.0077 1.334027,-0.0049 2.668058,-0.0063 4.002095,-0.0063 1.649738,-0.0031 3.299495,-0.0078 4.94923,-7.94e-4 1.864651,-0.0044 3.729334,-0.01537 5.593723,-0.04863 2.364324,-0.04549 4.729115,-0.09211 7.090852,-0.217184 1.807167,-0.06509 3.608779,-0.198551 5.413195,-0.310761 1.577139,-0.06923 3.155873,-0.09612 4.732487,-0.181043 1.54016,-0.0168 3.08089,-0.04929 4.61526,-0.196932 1.73789,-0.164026 3.46598,-0.404982 5.20045,-0.601044 1.58384,-0.150754 3.1681,-0.290888 4.7582,-0.358193 1.27083,-0.04461 2.53838,-0.143618 3.79018,-0.37897 1.26118,-0.225404 2.53395,-0.37628 3.79916,-0.577363 1.22263,-0.160108 2.44661,-0.321541 3.68193,-0.337072 0.99917,0.0033 1.99833,0.0088 2.9975,0.0053 0.95196,-0.0024 1.90391,-0.0038 2.85587,-0.0019 0.78155,0.0035 1.56384,0.003 2.34431,0.04917 0.66974,0.05245 1.32556,0.173712 1.988,0.279331 0.83993,0.136592 1.66382,0.338032 2.489,0.544219 0.32644,0.108628 0.70182,0.161907 0.92744,0.444177 0.16499,0.262515 0.3243,0.533146 0.35933,0.847731 0.0246,0.355904 -0.0244,0.716904 -0.12178,1.059489 -0.13895,0.388633 -0.34164,0.748271 -0.54697,1.105379 -0.21925,0.360516 -0.45976,0.706959 -0.75583,1.00979 -0.23612,0.264618 -0.47929,0.522867 -0.72203,0.781199 -0.28269,0.294438 -0.5826,0.573333 -0.88977,0.841901 -0.33179,0.295582 -0.62699,0.63269 -0.99878,0.881626 -0.43168,0.346792 -0.8636,0.693145 -1.30049,1.033412 -0.67983,0.528524 -1.31607,1.108602 -1.97476,1.662745 -0.59363,0.503568 -1.19411,0.995691 -1.83079,1.44445 -0.37523,0.253982 -0.76206,0.491469 -1.1221,0.767051 -0.35415,0.282427 -0.70947,0.564891 -1.09218,0.8083 -0.90451,0.538983 -0.61255,0.363548 2.04555,-1.169178 0.0518,-0.02989 -0.10621,0.05521 -0.15827,0.0847 -0.85624,0.484917 -1.71175,0.971132 -2.5666,1.458492 -0.0532,0.03036 -0.2109,0.124975 -0.15765,0.09463 0.74567,-0.42496 1.48997,-0.852328 2.23496,-1.27849 -0.44158,0.207976 -0.86476,0.453292 -1.30418,0.666208 -0.54215,0.239093 -1.08129,0.460666 -1.67464,0.541057 -0.77566,0.07575 -1.54963,0.127344 -2.32988,0.101793 -0.85207,0.01204 -1.70455,0.03502 -2.55341,0.115305 -1.08665,0.104418 -2.17079,0.226804 -3.26134,0.288322 -1.04847,0.09192 -2.10349,0.133927 -3.1552,0.15921 -0.75881,-1.8e-5 -1.51761,0.0024 -2.27642,0.0042 -0.93236,0.0027 -1.86471,-0.0032 -2.79707,0.0026 -0.96333,1.75e-4 -1.92666,-5.29e-4 -2.88997,-0.0065 -0.93464,-1.75e-4 -1.86919,0.01511 -2.80382,0.01714 -1.62075,0.0065 -3.24155,-5.3e-4 -4.86221,-0.01844 -1.620918,-0.02426 -3.241028,-0.07281 -4.860712,-0.140954 -1.80358,-0.04886 -3.608393,-0.01257 -5.412499,-0.02885 -1.456277,-0.0042 -2.912552,-0.0079 -4.36884,-0.0073 -1.449353,-0.0016 -2.89878,0.0044 -4.347987,0.0259 -1.264521,0.02365 -2.530245,0.05746 -3.784947,0.232487 -1.424062,0.193958 -2.86045,0.298312 -4.297439,0.322876 -2.216478,0.0074 -4.433067,0.0088 -6.649416,0.03448 -2.232173,0.04383 -4.46383,0.106765 -6.694458,0.202121 -1.699816,0.05897 -3.397332,0.150656 -5.09211,0.296415 -1.457822,0.04816 -2.91655,0.0118 -4.374975,0.02673 -1.608863,0.0021 -3.217736,0.0088 -4.826598,0.0024 -1.758252,-0.0078 -3.517194,-0.01701 -5.274006,-0.09528 -1.343178,-0.07552 -2.687092,-0.176496 -4.011581,-0.422037 -0.575878,-0.11571 -1.173236,-0.159324 -1.719746,-0.386321 -0.292595,-0.150024 -0.599313,-0.263665 -0.864325,-0.462433 -0.298376,-0.228312 -0.570339,-0.487135 -0.858872,-0.727723 -0.284911,-0.329923 -0.407493,-0.680085 -0.347416,-1.12168 0.03841,-0.471408 0.08261,-0.959358 0.398282,-1.336977 0.311499,-0.324543 0.648258,-0.622041 1.011087,-0.888479 0.418123,-0.294933 0.826815,-0.603205 1.245311,-0.897612 0.651701,-0.52102 1.325409,-1.014894 1.934864,-1.587087 1.228119,-1.050367 2.475005,-2.078842 3.725841,-3.10197 1.274535,-1.033759 2.562421,-2.062675 3.974791,-2.90508 0,0 -2.610914,1.00728 -2.610914,1.00728 z" />
    <path
       style="fill:#000000;fill-opacity:1;fill-rule:nonzero;stroke:none;stroke-width:0.264583"
       id="path69"
       d="m 96.824947,74.241902 c -0.568479,0.540407 -1.078161,1.133991 -1.572186,1.741697 -0.363519,0.472951 -0.769752,0.909389 -1.145027,1.371682 -0.316484,0.383596 -0.589954,0.800444 -0.866036,1.213456 -0.195512,0.403093 -0.532789,0.702016 -0.80771,1.046353 -0.258463,0.363159 -0.594426,0.653399 -0.900343,0.971597 -0.322169,0.398399 -0.608028,0.822476 -0.92249,1.226559 -0.273963,0.417036 -0.573927,0.819986 -0.942796,1.157329 -0.227869,0.254365 -0.448381,0.534054 -0.756335,0.691656 -0.316307,0.185973 -0.605401,0.406648 -0.925843,0.585583 4.260588,-2.334622 2.230358,-1.281459 1.228196,-0.80323 -0.428636,0.231754 -0.911077,0.327086 -1.381485,0.436571 -0.419928,0.06833 -0.834983,0.159919 -1.252418,0.241369 -0.451247,0.07913 -0.909971,0.0848 -1.364229,0.139334 -0.517427,0.06975 -1.038225,0.103288 -1.555171,0.17625 -0.71502,0.122782 -1.440307,0.140891 -2.163752,0.158581 -0.785267,0.01183 -1.570661,0.0086 -2.355992,0.0085 -0.616913,0.02355 -1.2187,-0.0056 -1.821958,-0.135766 -0.565669,-0.173461 -1.186029,-0.289229 -1.608307,-0.732692 -0.222435,-0.299096 -0.124849,-0.637678 -0.08046,-0.978154 0.09099,-0.378277 0.229347,-0.740839 0.332238,-1.115359 0.126254,-0.385403 0.30893,-0.746432 0.470151,-1.11729 0.08747,-0.360223 0.259395,-0.683538 0.407051,-1.020181 0.141489,-0.340521 0.324972,-0.644646 0.511506,-0.960347 0.214537,-0.343406 0.425391,-0.688914 0.645027,-1.029621 0.3008,-0.390922 0.574466,-0.800166 0.85252,-1.207394 0.260641,-0.400794 0.4759,-0.841203 0.79008,-1.203346 0.311309,-0.374939 0.610581,-0.764451 0.94361,-1.119847 0.232905,-0.354232 0.54652,-0.634698 0.831678,-0.94149 0.03733,-0.05396 0.07466,-0.107911 0.111987,-0.161865 0,0 -2.581957,1.1058 -2.581957,1.1058 v 0 c -0.04045,0.04504 -0.0809,0.09008 -0.121343,0.135117 -0.297458,0.297765 -0.556768,0.626579 -0.82358,0.951439 -0.313959,0.378008 -0.640831,0.74539 -0.937715,1.137314 -0.272677,0.396307 -0.515151,0.812602 -0.777203,1.215936 -0.278823,0.410739 -0.577643,0.807108 -0.855218,1.218525 -0.215749,0.345733 -0.435234,0.688951 -0.647475,1.036867 -0.196519,0.315733 -0.33166,0.659144 -0.498152,0.991034 -0.15607,0.332375 -0.272206,0.677474 -0.402489,1.020048 -0.172117,0.375762 -0.33627,0.755852 -0.455269,1.152396 -0.11821,0.381574 -0.248899,0.761143 -0.313404,1.15674 -0.04894,0.424717 -0.07544,0.829185 0.201155,1.189818 0.453646,0.502184 1.085585,0.665657 1.714989,0.859483 0.61576,0.163327 1.218787,0.239966 1.857857,0.190902 0.791845,1.59e-4 1.583653,-0.0044 2.375418,-0.0163 0.720738,-0.0087 1.446832,0.0037 2.160463,-0.112284 0.515964,-0.078 1.033317,-0.122346 1.551893,-0.180946 0.454776,-0.05939 0.906989,-0.08069 1.363543,-0.121941 0.425191,-0.06576 0.836494,-0.190445 1.264941,-0.236014 0.478952,-0.09789 0.9695,-0.195445 1.421879,-0.378767 1.206122,-0.639519 2.503818,-1.036584 3.580506,-1.959065 0.310546,-0.197765 0.616376,-0.403056 0.925716,-0.602885 0.262612,-0.227309 0.492426,-0.487415 0.729742,-0.740352 0.333796,-0.374179 0.63477,-0.771456 0.918347,-1.185071 0.305867,-0.406098 0.594151,-0.828437 0.946037,-1.197173 0.320124,-0.310804 0.612359,-0.646385 0.892291,-0.993741 0.295817,-0.334034 0.568034,-0.685662 0.791776,-1.073219 0.272047,-0.408458 0.556324,-0.810635 0.875607,-1.183814 0.388268,-0.445768 0.750951,-0.911794 1.126818,-1.368034 0.501063,-0.608758 1.038291,-1.182534 1.594551,-1.741106 0,0 -2.581235,1.089369 -2.581235,1.089369 z" />
    <path
       style="fill:#000000;fill-opacity:1;fill-rule:nonzero;stroke:none;stroke-width:0.264583"
       id="path73"
       d="m 91.201818,58.203197 c -0.0586,-2.140839 -0.08649,-4.284131 -0.01394,-6.424689 0.137498,-1.794682 0.290769,-3.599037 0.636529,-5.367819 0.139541,-0.578996 0.268928,-1.156478 0.31278,-1.750931 0.02259,-0.578614 0.01355,-1.157919 0.01273,-1.736828 1.06e-4,-0.560022 0.0019,-1.120052 5.29e-4,-1.680072 0.0026,-0.641144 -0.006,-1.282219 -0.01074,-1.92333 -0.0069,-1.048404 -0.01,-2.096855 -0.0049,-3.145274 -0.02484,-0.676074 0.02315,-1.342441 0.108323,-2.011643 0.08045,-0.572183 0.149098,-1.149493 0.258598,-1.717326 0.136316,-0.924385 0.288528,-1.846342 0.429877,-2.7701 0.122351,-1.002686 0.319249,-1.993853 0.438753,-2.996756 0.0776,-0.7284 0.09334,-1.461005 0.09941,-2.192841 0.0041,-0.683055 0.0013,-1.366111 -5.29e-4,-2.049167 -0.007,-0.752774 0.09501,-1.502071 0.193828,-2.246903 0.09521,-0.694984 0.233857,-1.382487 0.318463,-2.07927 0.04777,-0.493694 0.05901,-0.989734 0.06402,-1.485374 -0.02365,-0.560343 0.05858,-1.116266 0.114006,-1.672502 0.0432,-0.585513 0.06154,-1.172196 0.06621,-1.759135 0.0049,-0.532111 0.0041,-1.064246 0.0056,-1.596374 0.02191,-0.572574 -0.02572,-1.138354 -0.09536,-1.7057187 C 94.10765,9.3976686 94.027068,8.9137764 93.951747,8.4262078 93.904471,8.0341077 93.77315,7.6610489 93.713659,7.2704927 c -0.04896,-0.4429482 -0.04842,-0.8894262 -0.05295,-1.3344858 -0.0049,-0.5209963 -1.19e-4,-1.0420215 0.0026,-1.5630175 0.0021,-0.4001601 0.0028,-0.8003255 0.0031,-1.2004903 1.62e-4,-0.2515296 1.59e-4,-0.5030591 1.64e-4,-0.7545888 0,0 -2.502714,1.2751928 -2.502714,1.2751928 v 0 c -3e-6,0.2514668 -8e-6,0.502934 4.5e-5,0.7544009 1.19e-4,0.3993012 2.64e-4,0.7986024 0.0013,1.1979028 0.0013,0.5210876 0.0034,1.0421763 0.0024,1.5632663 0.0024,0.4599585 0.0034,0.9216713 0.06327,1.3785503 0.06867,0.3866809 0.197721,0.758906 0.245057,1.1492976 0.0768,0.484174 0.141912,0.967902 0.181555,1.456787 0.07195,0.557325 0.102338,1.113385 0.0776,1.675686 0.0024,0.529991 0.0034,1.059995 -0.0013,1.589977 -0.01019,0.579868 -0.02159,1.160485 -0.07691,1.738175 -0.05359,0.565193 -0.126703,1.130099 -0.112336,1.699046 -0.0044,0.484958 -0.01376,0.970721 -0.0688,1.453083 -0.08333,0.692515 -0.218872,1.376543 -0.304531,2.068633 -0.101189,0.757024 -0.196349,1.518633 -0.18457,2.283951 1.45e-4,0.682132 0.0024,1.364282 -0.0013,2.046402 -0.0092,0.721367 -0.02381,1.443857 -0.104571,2.161481 -0.120518,0.994902 -0.290148,1.983298 -0.42208,2.976697 -0.153707,0.92814 -0.30766,1.85619 -0.468971,2.783036 -0.09641,0.575773 -0.179755,1.154676 -0.254844,1.733471 -0.07715,0.674475 -0.08788,1.347401 -0.06286,2.026237 0.0051,1.05011 0.0019,2.100252 -0.005,3.150349 -0.0047,0.644678 -0.01333,1.28933 -0.0096,1.934038 -9.8e-5,0.558763 0.0043,1.117518 0.0068,1.67627 2.12e-4,0.573987 0.0033,1.148945 -0.03558,1.721892 -0.05431,0.576051 -0.183727,1.139513 -0.282884,1.708907 -0.267857,1.773698 -0.424374,3.564218 -0.526318,5.354505 -0.07574,2.164583 -0.03246,4.330425 -0.10437,6.49523 0,0 2.486972,-1.267177 2.486972,-1.267177 z" />
    <path
       style="fill:#000000;fill-opacity:1;fill-rule:nonzero;stroke:none;stroke-width:0.264583"
       id="path81"
       d="m 89.447991,51.718379 c -2.68795,0.05923 -5.376807,0.04933 -8.065244,0.05746 -2.786861,0.0019 -5.57368,-0.0145 -8.360505,-0.02654 -1.857518,-0.0109 -3.715041,-0.0074 -5.572572,-0.0045 -1.466559,0.0024 -2.933057,-0.0092 -4.399563,-0.01879 -0.624612,-0.0062 -1.249238,-0.0084 -1.873872,-0.01045 -0.479578,0.0013 -0.959154,-0.0024 -1.438727,2.64e-4 -0.588635,0.0053 -1.177303,0.0019 -1.765946,-1.51e-4 -0.443701,-0.0024 -0.887402,-7.93e-4 -1.331105,-0.0011 -0.473202,0.02291 -0.941025,0.102907 -1.412621,0.146653 -0.417981,0.05079 -0.834975,0.105977 -1.254038,0.147831 0,0 -2.23992,1.659813 -2.23992,1.659813 v 0 c 0.414128,-0.0368 0.829781,-0.06893 1.239303,-0.143332 0.469297,-0.02773 0.934148,-0.09252 1.398799,-0.162822 0.444717,-2.23e-4 0.889434,0.0013 1.334148,-0.0011 0.58878,-0.0021 1.177589,-0.0055 1.766361,-1.51e-4 0.479256,0.0028 0.958517,-0.0011 1.437783,2.65e-4 0.634225,-0.0021 1.268444,-0.0043 1.902648,-0.01045 1.483746,-0.0095 2.967487,-0.02119 4.451284,-0.01879 1.861685,0.0029 3.723365,0.0063 5.585036,-0.0045 2.811177,-0.01201 5.622351,-0.02834 8.433568,-0.02654 2.635702,0.008 5.271875,-0.0028 7.907059,0.05747 0,0 2.258124,-1.640623 2.258124,-1.640623 z" />
    <path
       style="fill:#000000;fill-opacity:1;fill-rule:nonzero;stroke:none;stroke-width:0.264583"
       id="path83"
       d="m 54.559165,52.221905 c 0.707652,-0.743321 1.438243,-1.464554 2.143069,-2.210554 0.632982,-0.696667 1.283449,-1.376625 1.96831,-2.022348 0.847839,-0.798537 1.698204,-1.593485 2.569834,-2.366201 1.388674,-1.191535 2.65847,-2.508626 3.90987,-3.840734 1.00122,-1.140452 1.975564,-2.303407 2.877079,-3.524464 0.616818,-0.848429 1.296429,-1.647973 1.96397,-2.456244 0.400145,-0.471185 0.772311,-0.969232 1.208122,-1.40843 0.05938,-0.05752 0.12427,-0.109849 0.178152,-0.172548 0.120425,-0.140126 0.213725,-0.301611 0.327393,-0.447272 0.258191,-0.330867 0.536117,-0.647476 0.803484,-0.970857 0.911577,-1.058177 1.774994,-2.155682 2.64137,-3.250642 0.929883,-1.241861 1.90229,-2.450809 2.828139,-3.695458 0.808471,-1.116018 1.607036,-2.239173 2.39047,-3.372927 0.909241,-1.224731 1.747846,-2.493487 2.527179,-3.804064 0.758041,-1.366476 1.579218,-2.695411 2.376035,-4.038996 0.534429,-0.916982 1.06435,-1.836686 1.578771,-2.765081 0.383762,-0.742839 0.768369,-1.484214 1.159071,-2.2232306 0.298339,-0.6716845 0.644482,-1.3220621 0.940983,-1.9953097 0.302244,-0.7032353 0.67156,-1.3727687 1.067212,-2.0268983 0.190733,-0.4116657 0.408017,-0.797478 0.670976,-1.1669493 0.199805,-0.3092561 0.440015,-0.5962927 0.674198,-0.8829397 0.200292,-0.35473 0.464592,-0.6604045 0.695592,-0.992559 0,0 -2.577841,1.1141636 -2.577841,1.1141636 v 0 c -0.246388,0.3182763 -0.453551,0.662064 -0.698825,0.9811547 -0.231082,0.2949807 -0.474491,0.5813229 -0.666726,0.9041346 -0.243698,0.3787548 -0.436907,0.7805431 -0.649404,1.1769961 -0.378786,0.6648302 -0.735923,1.3408599 -1.037114,2.0450807 -0.312936,0.6662684 -0.648616,1.3221009 -0.962956,1.9875429 -0.386493,0.735953 -0.743723,1.486682 -1.149292,2.212581 -0.508379,0.919612 -1.017921,1.83861 -1.551633,2.743848 -0.794835,1.337458 -1.578129,2.681157 -2.356652,4.028185 -0.796782,1.300097 -1.640967,2.566027 -2.546773,3.793326 -0.791493,1.128778 -1.586167,2.255119 -2.400771,3.367405 -0.927021,1.23581 -1.873001,2.457092 -2.815206,3.681383 -0.875017,1.102074 -1.758472,2.197248 -2.681746,3.259637 -0.450313,0.529855 -0.871553,1.085062 -1.347933,1.591292 -0.40418,0.461431 -0.791485,0.9359 -1.175996,1.413769 -0.659299,0.807474 -1.325927,1.609754 -1.933318,2.457826 -0.896964,1.202097 -1.853951,2.358202 -2.85093,3.478704 -1.258697,1.332389 -2.544882,2.639164 -3.942454,3.828074 -0.881176,0.784593 -1.75301,1.57952 -2.607471,2.393217 -0.670348,0.656296 -1.31967,1.332407 -1.949429,2.027844 -0.719494,0.749733 -1.448353,1.491096 -2.187342,2.221576 0,0 2.590533,-1.073033 2.590533,-1.073033 z" />
    <path
       style="fill:#000000;fill-opacity:1;fill-rule:nonzero;stroke:none;stroke-width:0.264583"
       id="path153"
       d="m 61.071606,54.137295 c -0.585661,0.5433 -1.206558,1.042998 -1.77319,1.606605 -0.443032,0.342556 -0.833528,0.752227 -1.275212,1.095574 -0.38544,0.30988 -0.759005,0.632465 -1.173771,0.903189 -0.419714,0.214268 -0.739728,0.539279 -1.111994,0.81225 -0.189256,0.141063 -0.334515,0.347959 -0.534048,0.47498 -0.294995,0.187796 0.01701,-0.05956 -0.249052,0.164013 -0.21072,0.194733 -0.418365,0.392924 -0.647777,0.564861 0,0 2.607765,-1.050255 2.607765,-1.050255 v 0 c 0.213162,-0.190784 0.430043,-0.378857 0.655458,-0.554877 0.279431,-0.185877 0.505163,-0.438253 0.772813,-0.640384 0.352584,-0.291737 0.725863,-0.547907 1.110972,-0.79506 0.400926,-0.295026 0.784802,-0.611229 1.168876,-0.927716 0.416381,-0.370708 0.842487,-0.73021 1.250524,-1.109866 0.575345,-0.554768 1.188824,-1.069639 1.803842,-1.579367 0,0 -2.605206,1.036053 -2.605206,1.036053 z" />
    <path
       style="fill:#000000;fill-opacity:1;fill-rule:nonzero;stroke:none;stroke-width:0.264583"
       id="path231"
       d="m 143.30886,57.895225 c -1.23223,-1.197158 -2.47577,-2.382102 -3.69588,-3.592121 -1.87089,-1.903783 -3.83969,-3.707109 -5.77079,-5.548911 -1.6032,-1.490964 -3.09009,-3.099207 -4.5556,-4.723733 -1.13114,-1.267404 -2.18761,-2.596631 -3.24788,-3.922807 -1.1479,-1.458963 -2.32246,-2.895627 -3.51606,-4.317228 -1.01021,-1.172649 -1.98311,-2.37644 -2.9718,-3.567133 -1.07578,-1.288699 -2.14451,-2.583831 -3.16389,-3.917794 -0.98559,-1.32138 -1.99472,-2.624095 -3.00468,-3.926681 -1.2265,-1.503691 -2.4645,-2.998122 -3.69874,-4.495576 -1.4295,-1.793586 -2.92179,-3.532056 -4.47305,-5.221022 C 103.67151,13.0107 102.07381,11.416477 100.47183,9.8267286 99.434927,8.811212 98.409203,7.7852039 97.39705,6.7449924 96.652783,6.0137886 95.979056,5.2166837 95.28844,4.4361359 94.922019,4.0199291 94.526781,3.6312469 94.11895,3.2560704 c 0,0 -2.790883,0.2392963 -2.790883,0.2392963 v 0 c 0.426725,0.3496813 0.819695,0.7396239 1.195051,1.1437138 0.70802,0.7740402 1.377792,1.5844809 2.128264,2.3194169 1.028808,1.0393018 2.068867,2.0666755 3.120337,3.0829386 1.621144,1.581595 3.250691,3.155642 4.790521,4.817989 1.54543,1.680116 3.00476,3.432568 4.43785,5.209053 1.2278,1.490497 2.44694,2.988147 3.66092,4.489755 1.00811,1.306494 2.03629,2.597311 3.01909,3.923498 1.01221,1.33762 2.07757,2.633732 3.14038,3.931195 0.99309,1.193798 1.98018,2.39285 2.99613,3.567322 1.19671,1.414425 2.3843,2.836648 3.50728,4.311012 1.0675,1.330576 2.12256,2.671382 3.26734,3.937688 1.47866,1.631916 2.98869,3.23955 4.60098,4.740981 1.9405,1.826919 3.90236,3.633372 5.76386,5.541767 0.74412,0.756163 1.47831,1.523884 2.23712,2.265447 0.25788,0.252026 0.73651,0.690684 0.99536,0.960588 0.11613,0.121103 0.22251,0.251199 0.33377,0.376799 0,0 2.78654,-0.219305 2.78654,-0.219305 z" />
    <path
       style="fill:#000000;fill-opacity:1;fill-rule:nonzero;stroke:none;stroke-width:0.264583"
       id="path233"
       d="m 134.60825,50.61826 c -1.83306,0.01064 -3.66615,0.01027 -5.49923,0.0098 -1.79324,0.01214 -3.58482,-0.08184 -5.37677,-0.13647 -1.38175,-0.04013 -2.76414,-0.05004 -4.14638,-0.05736 -1.85198,-0.0059 -3.70398,-0.0034 -5.55597,-0.0038 -0.87861,5.3e-4 -1.75722,0.0019 -2.63583,0.0021 -1.12829,-7.94e-4 -4.91116,-2.64e-4 -0.021,-7.94e-4 -0.75238,-5.29e-4 -1.50476,-7.93e-4 -2.25715,-7.93e-4 -1.26632,-0.0021 -2.53223,0.0067 -3.79863,0.03157 -0.31413,0.0062 -0.63988,0.06792 -0.95366,0.09398 -0.64319,0.02011 -1.27886,0.106752 -1.91961,0.15879 -0.80599,0.05661 -1.61371,0.07941 -2.42143,0.09046 -1.338395,0.0092 1.48005,0.0024 2.21996,-0.0092 0.0776,-0.0013 -0.155,-0.01151 -0.23164,-0.02379 -0.27637,-0.04429 -0.48546,-0.152802 -0.72571,-0.290724 -0.50037,-0.351507 -0.88128,-0.827924 -1.20193,-1.341999 -0.322872,-0.53033 -0.509766,-1.122264 -0.688264,-1.712171 -0.212553,-0.743646 -0.386329,-1.49529 -0.508042,-2.258986 -0.184473,-0.91762 -0.274566,-1.847091 -0.325642,-2.780329 -0.05403,-1.305259 -0.05705,-2.611964 -0.06071,-3.91813 -0.02545,-1.442088 0.02207,-2.881405 0.09526,-4.321212 0.08911,-1.433192 0.255698,-2.861093 0.446775,-4.283961 0.144441,-1.003105 0.443169,-1.973779 0.706538,-2.949655 0.344325,-1.155359 0.398305,-2.354157 0.418855,-3.550538 0.0279,-1.845078 0.0319,-3.690366 0.0346,-5.535611 -0.0395,-1.130138 0.0525,-2.253371 0.14444,-3.377834 0.0597,-0.952101 0.0568,-1.90716 0.0587,-2.860796 0.001,-0.85292 -0.004,-1.7058049 -0.003,-2.5587279 0,0 -2.743627,-3.73e-5 -2.743627,-3.73e-5 v 0 c 0.0013,0.8523454 -0.004,1.7046302 -0.01058,2.5569502 -0.01064,0.947671 -0.0172,1.896088 -0.08488,2.841862 -0.07651,1.131951 -0.112282,2.263846 -0.07426,3.398676 0.004,1.842051 0.01495,3.68476 -0.04138,5.52618 -0.06064,1.172921 -0.125018,2.351993 -0.462907,3.485219 -0.279178,0.983861 -0.559313,1.973172 -0.691676,2.989593 -0.171374,1.432348 -0.326658,2.867422 -0.440143,4.305514 -0.06538,1.44448 -0.108812,2.888242 -0.08091,4.334553 -0.0021,1.310801 -0.01987,2.622306 0.02061,3.932636 0.04851,0.942563 0.134688,1.882246 0.32368,2.808471 0.118139,0.77553 0.273767,1.542549 0.48776,2.297789 0.182962,0.61082 0.371644,1.223619 0.687334,1.781853 0.321988,0.554344 0.721881,1.053404 1.213771,1.468487 0.225647,0.162806 0.459568,0.336815 0.732086,0.415693 0.07665,0.02217 0.156776,0.0351 0.236556,0.03673 2.224226,0.04537 2.098276,0.04496 3.305306,0.02506 0.80437,-0.01799 1.60862,-0.04807 2.4109,-0.110903 0.64413,-0.05719 1.2875,-0.117533 1.93301,-0.157665 0.21176,-0.01976 0.42331,-0.04169 0.63507,-0.06138 0.10506,-0.0098 0.42087,-0.02506 0.31537,-0.0271 -4.47425,-0.08636 -2.68884,0.0039 -1.70884,-0.01365 0.7558,2.6e-5 1.51159,-2.62e-4 2.26739,-7.94e-4 1.831,-7.6e-5 3.66199,1.35e-4 5.49299,-7.94e-4 0.88439,6.4e-5 1.76878,0.0013 2.65317,5.3e-4 0.12456,-1.83e-4 0.24911,-2.65e-4 0.37367,-5.3e-4 1.90696,-0.0032 -3.49894,-0.0011 -1.36415,-0.0016 0.17347,-4e-5 0.34694,-1.61e-4 0.52041,-8.5e-5 0.18569,8.2e-5 0.37137,2.65e-4 0.55706,5.29e-4 1.39133,0.003 2.78276,0.01006 4.1737,0.04604 1.80696,0.05003 3.6133,0.147979 5.42129,0.13744 1.79179,-5.29e-4 3.5836,-0.0011 5.37537,0.0098 0,0 2.77222,-0.439076 2.77222,-0.439076 z" />
    <path
       style="fill:#000000;fill-opacity:1;fill-rule:nonzero;stroke:none;stroke-width:0.264583"
       id="path237"
       d="m 96.236601,50.819137 c -1.721797,0.872786 -3.531989,1.551008 -5.333648,2.236655 -1.944198,0.736187 -3.950668,1.29186 -5.961025,1.813949 -1.569562,0.394528 -3.135596,0.80111 -4.69242,1.243235 -1.071878,0.278325 -2.133756,0.594053 -3.202826,0.882234 -0.717241,0.172135 -1.451298,0.26456 -2.17137,0.418423 -0.639876,0.172175 -1.281935,0.337264 -1.935832,0.44614 -0.560152,0.131749 -1.125407,0.226806 -1.682588,0.3688 -0.441108,0.12015 -0.90033,0.190408 -1.337276,0.32502 -0.473607,0.09502 -0.94343,0.193095 -1.411523,0.313915 -0.0984,0.02267 -0.196802,0.04532 -0.295206,0.06799 0,0 2.767806,0.373457 2.767806,0.373457 v 0 c 0.09908,-0.02349 0.198152,-0.04699 0.297228,-0.07048 0.473903,-0.109199 0.951622,-0.199509 1.423056,-0.318728 0.446233,-0.101502 0.888045,-0.219239 1.334286,-0.320664 0.550196,-0.134996 1.110091,-0.228196 1.662702,-0.352878 0.653206,-0.127534 1.295459,-0.300186 1.943817,-0.449344 0.723342,-0.129977 1.444924,-0.267859 2.159397,-0.44172 1.052883,-0.302426 2.106375,-0.601898 3.16362,-0.888817 1.544434,-0.438822 3.098065,-0.842552 4.652876,-1.242923 2.00625,-0.532302 4.009495,-1.095086 5.947145,-1.844989 1.834914,-0.702787 3.66916,-1.412568 5.447694,-2.250671 0,0 -2.775913,-0.308596 -2.775913,-0.308596 z" />
    <path
       style="fill:#b3b3b3;stroke-width:0.714286"
       d="m 150.66092,276.04511 c -15.81481,-1.80274 -19.58119,-2.84917 -23.39286,-6.49933 -2.15749,-2.06608 -2.58172,-5.19143 -1.13552,-8.36551 0.45582,-1.00042 3.26832,-3.64472 6.25,-5.87623 2.98168,-2.23151 8.15338,-6.35368 11.49266,-9.16038 3.33929,-2.80671 8.85401,-7.36774 12.25493,-10.13563 l 6.1835,-5.03254 86.3165,-0.44276 c 47.47407,-0.24352 91.13793,-0.74395 97.03079,-1.11206 5.89286,-0.36812 19.71428,-1.02441 30.71428,-1.45842 11,-0.43402 25.46429,-1.41109 32.14286,-2.17128 6.67857,-0.76018 17.28572,-1.72569 23.57143,-2.14557 6.28571,-0.41988 16.89286,-1.63609 23.57143,-2.7027 11.45405,-1.82927 13.50021,-1.93928 36.07143,-1.93928 22.56072,0 24.29418,0.0931 30.32435,1.62838 7.46564,1.90075 8.96136,2.98083 8.96136,6.4711 0,7.08537 -7.44618,14.96705 -32.69463,34.60679 -10.03567,7.80634 -11.96739,8.52185 -24.71399,9.15411 -5.94311,0.29478 -15.14495,0.91915 -20.44852,1.38748 -7.09072,0.62615 -27.79145,0.73562 -78.21429,0.41362 -42.77651,-0.27317 -70.9897,-0.17624 -75,0.25765 -3.53571,0.38255 -19.76785,1.01635 -36.07143,1.40844 -16.30357,0.39209 -35.40492,1.04129 -42.44744,1.44266 -11.57301,0.65958 -65.54573,0.86662 -70.76684,0.27146 z"
       id="path241"
       transform="scale(0.26458333)" />
    <path
       style="fill:#d38d5f;stroke-width:0.714286"
       d="m 290.83272,318.33963 c -5.68091,-2.02717 -5.82945,-3.00923 -1.97249,-13.04085 2.17526,-5.65768 11.0086,-19.91799 14.85029,-23.97393 l 1.86053,-1.96428 h 30.44523 30.44522 l -3.49515,3.75 c -1.92235,2.0625 -5.7944,6.80357 -8.60457,10.53571 -2.81017,3.73214 -6.26061,8.07143 -7.66765,9.64286 -1.40703,1.57143 -4.07863,4.86154 -5.93687,7.31136 -2.93183,3.86518 -3.87096,4.59734 -7.10162,5.53652 -9.70009,2.81989 -37.1381,4.23118 -42.82292,2.20261 z"
       id="path243"
       transform="scale(0.26458333)" />
    <path
       style="fill:#f2f2f2;stroke-width:0.714286"
       d="m 213.16624,190.87532 c 2.55064,-2.8598 10.10182,-10.25799 16.78039,-16.44042 13.00736,-12.04107 18.50282,-17.91555 26.79755,-28.64576 2.88504,-3.73214 7.05391,-8.875 9.26417,-11.42857 28.19572,-32.57533 51.24361,-66.542504 68.58835,-101.083097 9.59476,-19.107144 8.96095,-18.573402 9.53018,-8.025501 0.25975,4.813299 0.78386,10.037166 1.16469,11.608595 0.85154,3.513768 0.85233,26.487126 0.001,34.285714 -0.34302,3.142857 -0.97362,12.303572 -1.40135,20.357143 -0.47171,8.881836 -1.59445,19.841826 -2.85368,27.857146 -1.84702,11.75677 -2.11516,15.57782 -2.431,34.64285 -0.23904,14.42862 -0.71818,23.64523 -1.46678,28.21429 -0.61148,3.73214 -1.11406,8.15179 -1.11684,9.82143 l -0.005,3.03571 h -62.44158 c -34.34287,0 -63.02797,0.22502 -63.74468,0.50005 -0.71671,0.27502 0.78379,-1.83979 3.33444,-4.69958 z"
       id="path249"
       transform="scale(0.26458333)" />
    <path
       style="fill:#d38d5f;stroke-width:0.714286"
       d="m 180.66092,275.69929 c -20.46345,-0.2511 -38.02754,-0.77302 -40.07703,-1.19091 -6.61477,-1.34873 -9.56969,-2.49975 -12.1553,-4.73483 -2.10073,-1.81595 -2.55339,-2.69283 -2.55339,-4.94647 0,-3.16633 1.46226,-4.96193 8.71429,-10.70085 4.1301,-3.26837 23.512,-19.12272 26.52376,-21.69638 0.97552,-0.83361 15.71759,-1.10452 90,-1.6539 48.85836,-0.36134 95.42267,-0.99543 103.47624,-1.40909 8.05357,-0.41365 20.91071,-1.08166 28.57143,-1.48447 18.563,-0.97605 57.66034,-4.56749 71.42857,-6.56136 9.87508,-1.43007 13.88864,-1.60332 37.14286,-1.60332 23.05741,0 26.60817,0.15059 30.71428,1.30259 6.81697,1.91255 7.85715,2.76395 7.85715,6.43118 0,4.06896 -2.51583,7.93718 -9.7123,14.93319 -6.11423,5.94392 -23.59704,20.21824 -28.8555,23.55987 -5.65406,3.59303 -9.52283,4.2369 -34.64649,5.76609 -2.35714,0.14347 -39.48214,0.40752 -82.5,0.58678 -73.89009,0.3079 -143.57776,1.81408 -153.92857,3.32689 -1.96429,0.28709 -19.96429,0.32083 -40,0.075 z"
       id="path253"
       transform="scale(0.26458333)" />
    <text
       xml:space="preserve"
       style="font-style:normal;font-weight:normal;font-size:8.49197px;line-height:1.25;font-family:sans-serif;fill:#000000;fill-opacity:1;stroke:none;stroke-width:0.212306"
       x="57.329269"
       y="72.832726"
       id="text259"
       transform="scale(1.0501912,0.95220757)"><tspan
         sodipodi:role="line"
         id="tspan257"
         x="57.329269"
         y="72.832726"
         style="font-style:normal;font-variant:normal;font-weight:normal;font-stretch:normal;font-family:'Californian FB';-inkscape-font-specification:'Californian FB';stroke-width:0.212306">S/Y CELINE</tspan></text>
    <rect
       style="fill:#2a7fff;stroke-width:0.264583"
       id="rect261"
       width="122.46429"
       height="8.5044641"
       x="26.458334"
       y="88.257431" />
  </g>
</svg>
